# xmcd CD database file
#
# Track frame offsets:
#	183
#	11798
#	23563
#	36395
#	47973
#	61648
#	70903
#	85320
#	95655
#	105515
#	114265
#	127193
#	137675
#	147073
#	158060
#	169065
#	180278
#
# Disc length: 2531 seconds
#
# Revision: 0
# Processed by: cddbd v1.5.1PL0 Copyright (c) Steve Scherf et al.
# Submitted via: CDex 1.51
#
DISCID=de09e111
DTITLE=Patsy Cline - 16+1 Great Songs
DYEAR=1991
DGENRE=Country
TTITLE0=Sweet Dreams (Of You)
TTITLE1=If I Could Only Stay Asleep
TTITLE2=You're Stronger Than Me
TTITLE3=Never No More
TTITLE4=A Church, A Courtroom, Then Goodbye
TTITLE5=Back In Babys Arms
TTITLE6=Then You'll Know
TTITLE7=He'll Do For You (That What He's Done For Me)
TTITLE8=Strange
TTITLE9=Ain't No Wheels On This Ship
TTITLE10=If I Could See The World (Trou The Eyes Of A Child)
TTITLE11=San Antonio Rose
TTITLE12=Love Me Honey
TTITLE13=Don't Ever Leave Me
TTITLE14=Leavin' On Your Mind
TTITLE15=Hungry For Love
TTITLE16=True Love
EXTD=YEAR: 1991
EXTT0=
EXTT1=
EXTT2=
EXTT3=
EXTT4=
EXTT5=
EXTT6=
EXTT7=
EXTT8=
EXTT9=
EXTT10=
EXTT11=
EXTT12=
EXTT13=
EXTT14=
EXTT15=
EXTT16=
PLAYORDER=
